<?xml version="1.0" standalone="no"?>
<!DOCTYPE svg PUBLIC "-//W3C//DTD SVG 20010904//EN"
 "http://www.w3.org/TR/2001/REC-SVG-20010904/DTD/svg10.dtd">
<svg version="1.0" xmlns="http://www.w3.org/2000/svg"
 width="64.000000pt" height="64.000000pt" viewBox="0 0 64.000000 64.000000"
 preserveAspectRatio="xMidYMid meet">
<g transform="translate(0.000000,64.000000) scale(0.100000,-0.100000)"
fill="#0e7b7c" stroke="none">
<path d="M193 619 c-61 -23 -131 -88 -165 -150 -20 -38 -23 -58 -23 -149 0
-122 15 -162 91 -236 117 -114 331 -114 448 0 76 74 91 114 91 236 0 122 -15
162 -91 236 -84 82 -233 108 -351 63z m233 -49 c176 -76 222 -311 86 -443
-138 -134 -367 -89 -442 86 -97 224 132 453 356 357z"/>
<path d="M270 405 l-85 -85 90 -90 c50 -50 97 -89 105 -88 31 6 19 36 -40 103
-33 37 -60 71 -60 74 0 4 27 37 61 74 60 67 70 97 32 97 -10 0 -56 -38 -103
-85z"/>
</g>
</svg>